<svg xmlns="http://www.w3.org/2000/svg" x="0px" y="0px" viewBox="0 0 172 172">
    <g fill="none" fill-rule="nonzero" stroke="none" stroke-width="1" stroke-linecap="butt" stroke-linejoin="miter" stroke-miterlimit="10" stroke-dasharray="" stroke-dashoffset="0" font-family="none" font-weight="none" font-size="none" text-anchor="none" style="mix-blend-mode: normal">
        <path d="M0,172v-172h172v172z" fill="none"></path>
        <g>
            <path d="M45.78067,150.5h54.55267v-86h-67.21975c-6.41417,0 -11.61358,5.19942 -11.61358,11.61358v50.10575c0,13.40883 10.87183,24.28067 24.28067,24.28067z" fill="#ffcc80"></path>
            <path d="M92.47867,150.5h47.54725c5.27467,0 10.15875,-3.55825 11.09042,-8.7505c1.2255,-6.81908 -3.9775,-12.7495 -10.57083,-12.7495h-47.54725c-5.27467,0 -10.15875,3.55825 -11.09042,8.7505c-1.2255,6.81908 3.9775,12.7495 10.57083,12.7495z" fill="#ffcc80"></path>
            <path d="M68.08333,75.25c0,9.87925 8.03742,17.91667 17.91667,17.91667h14.33333v-28.66667h-28.5735c-2.27542,3.00283 -3.6765,6.70083 -3.6765,10.75z" fill="#f2a86b"></path>
            <path d="M44.58742,48.55058c3.32533,-3.70158 5.70108,-8.39217 6.89792,-13.25117l2.6015,-10.58158c0.4945,-2.07833 2.31483,-3.52242 4.40392,-3.51525h2.41517c6.37475,0 10.63175,7.16667 10.63175,11.79633v4.988c0,10.13367 -1.62325,20.11325 -6.50375,28.93183l-7.72925,17.64792l-33.83025,-14.88517z" fill="#ffcc80"></path>
            <path d="M100.33333,100.33333h-13.53425c-9.3525,0 -17.71958,6.81908 -18.62975,16.125c-0.06808,0.71308 -0.09675,1.41542 -0.086,2.11058c0.20425,11.5025 11.98267,19.29267 23.04442,16.13217l12.78892,-5.70108z" fill="#f2a86b"></path>
            <path d="M100.33333,78.83333h-14.33333c-9.87925,0 -17.91667,8.03742 -17.91667,17.91667c0,9.87925 8.03742,17.91667 17.91667,17.91667h14.33333z" fill="#f2a86b"></path>
            <path d="M103.91667,107.5h-17.91667c-5.93758,0 -10.75,-4.81242 -10.75,-10.75v0c0,-5.93758 4.81242,-10.75 10.75,-10.75h17.91667c5.93758,0 10.75,4.81242 10.75,10.75v0c0,5.93758 -4.81242,10.75 -10.75,10.75z" fill="#ffcc80"></path>
            <path d="M103.91667,129h-17.91667c-5.93758,0 -10.75,-4.81242 -10.75,-10.75v0c0,-5.93758 4.81242,-10.75 10.75,-10.75h17.91667c5.93758,0 10.75,4.81242 10.75,10.75v0c0,5.93758 -4.81242,10.75 -10.75,10.75z" fill="#ffcc80"></path>
            <path d="M103.91667,86h-17.91667c-5.93758,0 -10.75,-4.81242 -10.75,-10.75v0c0,-5.93758 4.81242,-10.75 10.75,-10.75h17.91667c5.93758,0 10.75,4.81242 10.75,10.75v0c0,5.93758 -4.81242,10.75 -10.75,10.75z" fill="#ffcc80"></path>
            <path d="M86,82.41667v0c-3.95958,0 -7.16667,-3.20708 -7.16667,-7.16667v0c0,-3.95958 3.20708,-7.16667 7.16667,-7.16667v0c3.58333,0 3.58333,7.16667 3.58333,7.16667c0,0 0,7.16667 -3.58333,7.16667z" fill="#ffebee"></path>
            <path d="M86,103.91667v0c-3.95958,0 -7.16667,-3.20708 -7.16667,-7.16667v0c0,-3.95958 3.20708,-7.16667 7.16667,-7.16667v0c3.58333,0 3.58333,7.16667 3.58333,7.16667c0,0 0,7.16667 -3.58333,7.16667z" fill="#ffebee"></path>
            <path d="M86,125.41667v0c-3.95958,0 -7.16667,-3.20708 -7.16667,-7.16667v0c0,-3.95958 3.20708,-7.16667 7.16667,-7.16667v0c3.58333,0 3.58333,7.16667 3.58333,7.16667c0,0 0,7.16667 -3.58333,7.16667z" fill="#ffebee"></path>
        </g>
    </g>
</svg>