<svg xmlns="http://www.w3.org/2000/svg" x="0px" y="0px" viewBox="0 0 172 172">
    <g fill="none" fill-rule="nonzero" stroke="none" stroke-width="1" stroke-linecap="butt" stroke-linejoin="miter" stroke-miterlimit="10" stroke-dasharray="" stroke-dashoffset="0" font-family="none" font-weight="none" font-size="none" text-anchor="none" style="mix-blend-mode: normal">
        <path d="M0,172v-172h172v172z" fill="none"></path>
        <g>
            <path d="M125.41308,89.58333c0,0 9.74308,-17.41142 10.6425,-27.23692c0.28308,-3.08167 -0.82058,-6.11675 -3.39342,-7.83317l-2.13925,-1.42617c-2.65167,-1.76658 -3.97392,-4.95933 -3.34683,-8.084l1.66625,-5.58642c0.85283,-4.257 -1.90992,-8.39933 -6.16692,-9.24858l-5.98775,-0.52317c-2.97775,-0.59483 -5.34633,-2.85592 -6.0845,-5.80142v0c-1.21833,-4.8805 -6.6435,-7.3745 -11.14058,-5.12417l-0.50167,0.25083c-3.02792,1.51217 -6.9875,0.39775 -9.38117,-1.99592l-0.33325,-0.33325c-3.38267,-3.38625 -8.97625,-2.9885 -11.8465,0.8385c0,0 -5.73333,7.60383 -9.31667,7.60383c-7.70775,15.2005 -3.58692,68.08333 -3.58692,68.08333l57.10758,5.15283z" fill="#689f38"></path>
            <path d="M118.25,125.41667v-35.83333c0,-14.07533 -10.75,-12.68858 -10.75,-43c0,0 -13.53783,0 -17.91667,0c0,30.31142 -10.75,28.92467 -10.75,43v35.83333z" fill="#fafafa"></path>
            <path d="M107.5,53.75h-17.91667c-1.97083,0 -3.58333,-1.6125 -3.58333,-3.58333v-3.58333c0,-1.97083 1.6125,-3.58333 3.58333,-3.58333h17.91667c1.97083,0 3.58333,1.6125 3.58333,3.58333v3.58333c0,1.97083 -1.6125,3.58333 -3.58333,3.58333z" fill="#f48fb1"></path>
            <path d="M111.08333,89.58333c0,-3.84133 -1.04992,-5.72258 -2.95625,-9.14108c-1.70925,-3.06375 -3.73742,-6.76175 -5.29975,-12.35892h-8.56775c-1.56233,5.59717 -3.5905,9.29517 -5.29975,12.35892c-1.90992,3.4185 -2.95983,5.29975 -2.95983,9.14108v28.66667h25.08333z" fill="#fafafa"></path>
            <path d="M43.00358,32.25c0.18992,-14.45158 6.364,-25.08333 14.33333,-25.08333c7.96933,0 14.33333,10.63175 14.33333,25.08333c0,9.96167 -6.364,17.91667 -14.33333,17.91667c-7.96933,0 -14.46592,-7.95858 -14.33333,-17.91667z" fill="#ffd54f"></path>
            <path d="M43.00358,32.25h28.66667v64.5h-28.66667z" fill="#ffd54f"></path>
            <path d="M46.58692,53.76075c0,0 3.13542,-7.84033 8.8795,-13.10783c5.74408,-5.2675 12.6205,-4.80883 12.6205,-4.80883c0,0 -3.268,7.62175 -9.01208,12.88567c-5.74408,5.26392 -12.48792,5.031 -12.48792,5.031zM46.58692,78.8405c0,0 3.13542,-7.84033 8.8795,-13.10783c5.74408,-5.26392 12.6205,-4.80883 12.6205,-4.80883c0,0 -3.268,7.62175 -9.01208,12.88567c-5.74408,5.2675 -12.48792,5.031 -12.48792,5.031z" fill="#ffb300"></path>
            <path d="M47.59742,105.48617l-11.62792,50.80808c-0.86717,4.42183 2.52267,8.53908 7.03408,8.53908h85.99283c4.36092,0 7.71133,-3.86283 7.095,-8.18075l-5.9985,-41.98592z" fill="#ffab40"></path>
            <path d="M125.41308,143.75258l10.69983,-54.09758c0.35475,-1.89917 -1.10367,-3.655 -3.03867,-3.655h-94.14492c-1.88125,0 -3.32533,1.66625 -3.06017,3.526l7.13442,46.64067z" fill="#ffab40"></path>
            <path d="M111.07975,116.45833l19.74058,3.2895l-0.27592,-1.93142l0.93883,-4.75867zM60.92383,127.33375l-19.77642,-3.29308l0.8815,5.76558l-0.16125,0.70592z" fill="#fb8c00"></path>
        </g>
    </g>
</svg>