<svg xmlns="http://www.w3.org/2000/svg" x="0px" y="0px" viewBox="0 0 172 172">
    <g fill="none" fill-rule="nonzero" stroke="none" stroke-width="1" stroke-linecap="butt" stroke-linejoin="miter" stroke-miterlimit="10" stroke-dasharray="" stroke-dashoffset="0" font-family="none" font-weight="none" font-size="none" text-anchor="none" style="mix-blend-mode: normal">
        <path d="M0,172v-172h172v172z" fill="none"></path>
        <g>
            <path d="M82.41667,41.20833c0,-10.75 -3.58333,-21.12733 -3.58333,-25.08333c0,-3.956 7.16667,0 7.16667,0c0,0 7.16667,-3.956 7.16667,0c0,3.956 -3.58333,14.33333 -3.58333,25.08333" fill="#ce9402"></path>
            <path d="M82.41667,17.91667h7.16667v139.75h-7.16667z" fill="#ce9402"></path>
            <g fill="#ffc107">
                <path d="M89.58333,151.575c1.54083,0.45867 2.80575,0.71667 3.58333,0.71667l0.19708,-10.74283c-0.80625,-0.09675 -2.19658,-0.60558 -3.78042,-1.30075z"></path>
                <path d="M89.58333,110.123v11.16925c1.204,0.35833 2.39008,0.72383 3.38625,1.09292c-2.84875,1.47633 -7.51425,3.08525 -10.1265,3.98825c-7.80808,2.69825 -12.96808,4.48275 -12.96808,9.79325c0,4.90558 6.35325,9.52092 12.54167,12.54883v-10.8145l7.16667,-2.51908v0.02867c8.11983,-2.89892 16.125,-6.49658 16.125,-13.57725c0,-6.91583 -7.63967,-9.37758 -16.125,-11.71033zM92.12033,38.62475c0,0.53033 4.76225,7.98367 10.6425,7.98367c5.87308,0 14.89233,-3.04225 14.89233,-7.44975c0,-4.40392 -9.03,-8.18433 -14.89233,-8.51042c-19.15292,-1.05708 -10.6425,3.57617 -10.6425,7.9765z"></path>
                <path d="M82.41667,70.20825v-11.42008c-7.27417,-2.60867 -17.57267,-6.43208 -19.64742,-9.01567c0.13617,-0.4515 0.49808,-0.95675 1.07858,-1.50142c5.20658,-4.88767 21.48925,-7.7615 32.56533,-7.0735c7.55008,0.47658 9.32025,0.25442 11.11192,-1.376l1.763,-3.81983l-10.74283,-0.33683c0.086,-2.9885 2.52625,-4.84467 4.25342,-5.03817c-0.11108,0.01075 -1.2685,0.11825 -5.71183,-0.15767c-11.696,-0.72742 -31.98842,1.88125 -40.59558,9.96883c-3.74817,3.51883 -4.53292,7.23117 -4.53292,9.72875c0,9.16258 12.642,13.67758 28.65233,19.39658c0.56975,0.20425 1.1825,0.42283 1.806,0.645z"></path>
                <path d="M89.58333,61.36817v11.49175c5.36425,2.07475 10.55292,4.35375 12.26575,6.12033c-2.08192,2.322 -10.97217,5.55058 -15.89567,7.34225c-11.954,4.35375 -23.24508,8.45308 -23.24508,17.59417c0,9.14467 9.95092,12.65275 19.70833,15.37967v-11.20867c-3.90583,-1.204 -7.96217,-2.69467 -8.87233,-4.08142c1.64833,-2.32917 10.9865,-5.73333 16.08917,-7.57875c11.954,-4.35375 23.2415,-8.45308 23.2415,-17.59417c0,-8.11267 -9.91867,-12.58108 -23.29167,-17.46517z"></path>
            </g>
        </g>
    </g>
</svg>