<svg xmlns="http://www.w3.org/2000/svg" x="0px" y="0px" viewBox="0 0 172 172">
    <g fill="none" fill-rule="nonzero" stroke="none" stroke-width="1" stroke-linecap="butt" stroke-linejoin="miter" stroke-miterlimit="10" stroke-dasharray="" stroke-dashoffset="0" font-family="none" font-weight="none" font-size="none" text-anchor="none" style="mix-blend-mode: normal">
        <path d="M0,172v-172h172v172z" fill="none"></path>
        <g>
            <path d="M43,143.33333v-114.66667c0,-7.88333 6.45,-14.33333 14.33333,-14.33333h57.33333c7.88333,0 14.33333,6.45 14.33333,14.33333v114.66667c0,7.88333 -6.45,14.33333 -14.33333,14.33333h-57.33333c-7.88333,0 -14.33333,-6.45 -14.33333,-14.33333z" fill="#757575"></path>
            <path d="M114.66667,25.08333h-57.33333c-2.15,0 -3.58333,1.43333 -3.58333,3.58333v103.91667c0,2.15 1.43333,3.58333 3.58333,3.58333h57.33333c2.15,0 3.58333,-1.43333 3.58333,-3.58333v-103.91667c0,-2.15 -1.43333,-3.58333 -3.58333,-3.58333z" fill="#e3f2fd"></path>
            <path d="M91.375,146.91667c0,2.86667 -2.50833,5.375 -5.375,5.375c-2.86667,0 -5.375,-2.50833 -5.375,-5.375c0,-2.86667 2.50833,-5.375 5.375,-5.375c2.86667,0 5.375,2.50833 5.375,5.375z" fill="#424242"></path>
            <path d="M93.42467,91.64733c0,-1.98517 -0.55183,-3.56183 -1.65192,-4.74075c-1.10008,-1.17175 -2.967,-2.2575 -5.60792,-3.2465c-2.63733,-0.99258 -4.91275,-1.98158 -6.82625,-2.95625c-1.9135,-0.98183 -3.55108,-2.107 -4.91992,-3.37908c-1.36525,-1.2685 -2.4295,-2.76633 -3.19633,-4.48275c-0.75967,-1.71642 -1.14308,-3.76608 -1.14308,-6.13467c0,-4.09217 1.30792,-7.44258 3.92017,-10.05483c2.61225,-2.61225 6.08808,-4.13875 10.42033,-4.57592v-7.76867h5.80858v7.87975c4.28567,0.60558 7.63608,2.39008 10.05483,5.35708c2.42592,2.95983 3.6335,6.80117 3.6335,11.524h-10.492c0,-2.90608 -0.59842,-5.07758 -1.79883,-6.5145c-1.19683,-1.4405 -2.80217,-2.16075 -4.80883,-2.16075c-1.98517,0 -3.52242,0.56258 -4.61175,1.68775c-1.08933,1.12875 -1.634,2.68033 -1.634,4.6655c0,1.84183 0.53392,3.31458 1.59817,4.429c1.06425,1.11442 3.04583,2.25033 5.93758,3.41133c2.89175,1.161 5.27108,2.2575 7.13083,3.28592c1.86333,1.02842 3.43642,2.18942 4.71925,3.48658c1.28283,1.29358 2.26108,2.76992 2.94192,4.429c0.68083,1.6555 1.01767,3.58333 1.01767,5.78708c0,4.11367 -1.28283,7.45333 -3.8485,10.019c-2.56567,2.56567 -6.09883,4.07783 -10.5995,4.5365v7.224h-5.77275v-7.18817c-4.96292,-0.53392 -8.80425,-2.29333 -11.52758,-5.28183c-2.72333,-2.98492 -4.085,-6.95883 -4.085,-11.92175h10.492c0,2.881 0.68442,5.08833 2.05325,6.62558c1.36525,1.53725 3.3325,2.30408 5.89817,2.30408c2.13208,0 3.81267,-0.56258 5.04533,-1.69133c1.23625,-1.12158 1.85258,-2.64092 1.85258,-4.55442z" fill="#388e3c"></path>
        </g>
    </g>
</svg>