<svg xmlns="http://www.w3.org/2000/svg" x="0px" y="0px" viewBox="0 0 172 172">
    <g fill="none" fill-rule="nonzero" stroke="none" stroke-width="1" stroke-linecap="butt" stroke-linejoin="miter" stroke-miterlimit="10" stroke-dasharray="" stroke-dashoffset="0" font-family="none" font-weight="none" font-size="none" text-anchor="none" style="mix-blend-mode: normal">
        <path d="M0,172v-172h172v172z" fill="none"></path>
        <g>
            <path d="M68.08333,114.66667h35.83333v46.58333h-35.83333z" fill="#ffffff"></path>
            <path d="M86,121.83333l-17.91667,-3.58333v-21.5h35.83333v21.5z" fill="#ff9800"></path>
            <path d="M125.41667,75.25c0,3.95958 -3.20708,7.16667 -7.16667,7.16667c-3.956,0 -7.16667,-3.20708 -7.16667,-7.16667c0,-3.95958 3.21067,-7.16667 7.16667,-7.16667c3.95958,0 7.16667,3.20708 7.16667,7.16667M60.91667,75.25c0,-3.95958 -3.20708,-7.16667 -7.16667,-7.16667c-3.95958,0 -7.16667,3.20708 -7.16667,7.16667c0,3.95958 3.20708,7.16667 7.16667,7.16667c3.95958,0 7.16667,-3.20708 7.16667,-7.16667" fill="#ffa726"></path>
            <path d="M118.25,53.75c0,-27.35875 -64.5,-17.81275 -64.5,0v25.08333c0,17.81275 14.43725,32.25 32.25,32.25c17.81633,0 32.25,-14.43725 32.25,-32.25z" fill="#ffb74d"></path>
            <path d="M86,21.5c-21.76875,0 -35.83333,17.6515 -35.83333,39.41667v8.1915l7.16667,6.14183v-17.91667l43,-2.6875l14.33333,2.6875v17.91667l7.16667,-6.24217v-8.09117c0,-14.42292 -3.7195,-28.724 -21.5,-32.25l-3.58333,-7.16667z" fill="#424242"></path>
            <path d="M96.75,75.25c0,-1.97442 1.60533,-3.58333 3.58333,-3.58333c1.978,0 3.58333,1.60892 3.58333,3.58333c0,1.97442 -1.60533,3.58333 -3.58333,3.58333c-1.978,0 -3.58333,-1.60892 -3.58333,-3.58333M68.08333,75.25c0,1.97442 1.60533,3.58333 3.58333,3.58333c1.978,0 3.58333,-1.60892 3.58333,-3.58333c0,-1.97442 -1.60533,-3.58333 -3.58333,-3.58333c-1.978,0 -3.58333,1.60892 -3.58333,3.58333" fill="#784719"></path>
            <path d="M103.91667,118.25c0,0 40.08675,9.29517 39.41667,46.58333h-114.66667c-0.03225,-38.184 39.41667,-46.58333 39.41667,-46.58333l17.91667,43l17.91667,-43v0M132.10317,36.54642c-2.71258,6.95883 -10.26983,13.62025 -10.26983,13.62025c0,0 -8.50325,-8.92967 -35.82975,-8.92967c-27.33367,0 -35.83692,8.92967 -35.83692,8.92967c0,0 -7.55367,-6.66142 -10.26267,-13.62025c-0.46583,-1.18967 -1.41183,-3.32533 1.98517,-3.92017c22.88675,-4.02767 35.62192,-21.87625 44.11442,-21.87625c12.73517,0 21.22408,17.84858 44.11083,21.87983c3.397,0.59125 2.451,2.72692 1.98875,3.91658z" fill="#1a237e"></path>
            <path d="M82.41667,132.58333l-3.58333,-3.58333l7.16667,-7.16667l7.16667,7.16667l-3.58333,3.58333l2.20733,14.7705l-5.79067,13.89617l-5.79067,-13.89617zM139.75,132.58333l-32.25,-13.4375v14.33333l32.25,13.4375zM32.25,146.91667l32.25,-13.4375v-14.33333l-32.25,13.4375zM50.16667,50.16667v7.16667h71.66667v-7.16667c0,0 -8.50325,-8.92967 -35.82975,-8.92967c-27.33367,0 -35.83692,8.92967 -35.83692,8.92967z" fill="#3f51b5"></path>
            <path d="M121.83333,57.32617c0,0 -6.30667,10.75717 -35.82975,10.75717c-29.52667,0 -35.83692,-10.75717 -35.83692,-10.75717c0,0 10.20892,-7.1595 35.83692,-7.1595c25.62442,0 35.82975,7.1595 35.82975,7.1595z" fill="#263238"></path>
            <path d="M129,136.16667c0,-1.98158 1.60533,-3.58333 3.58333,-3.58333c1.98158,0 3.58333,1.60175 3.58333,3.58333c0,1.98158 -1.60175,3.58333 -3.58333,3.58333c-1.978,0 -3.58333,-1.60175 -3.58333,-3.58333zM39.41667,139.75c1.98158,0 3.58333,-1.60175 3.58333,-3.58333c0,-1.98158 -1.60175,-3.58333 -3.58333,-3.58333c-1.978,0 -3.58333,1.60175 -3.58333,3.58333c0,1.98158 1.60533,3.58333 3.58333,3.58333zM93.16667,24.94358c0,0 -3.20708,-3.44358 -7.16667,-3.44358c-3.956,0 -7.16667,3.44358 -7.16667,3.44358c0,3.95958 3.21425,10.88975 7.16667,10.88975c3.95958,0 7.16667,-6.93017 7.16667,-10.88975z" fill="#ffeb3b"></path>
        </g>
    </g>
</svg>