<svg xmlns="http://www.w3.org/2000/svg" x="0px" y="0px" viewBox="0 0 172 172">
    <g fill="none" fill-rule="nonzero" stroke="none" stroke-width="1" stroke-linecap="butt" stroke-linejoin="miter" stroke-miterlimit="10" stroke-dasharray="" stroke-dashoffset="0" font-family="none" font-weight="none" font-size="none" text-anchor="none" style="mix-blend-mode: normal">
        <path d="M0,172v-172h172v172z" fill="none"></path>
        <g>
            <path d="M28.66667,89.58333c0,42.7635 57.33333,64.5 57.33333,64.5c0,0 57.33333,-21.40683 57.33333,-64.5c0,-17.716 0,-60.91667 0,-60.91667c-14.14342,0 -57.33333,-10.75 -57.33333,-10.75c0,0 -43.20783,10.75 -57.33333,10.75c0,0 0,43.20067 0,60.91667z" fill="#c5cae9"></path>
            <path d="M143.33333,89.58333c0,42.7635 -57.33333,64.5 -57.33333,64.5v-136.16667c0,0 43.20783,10.75 57.33333,10.75c0,0 0,43.20067 0,60.91667z" fill="#9fa8da"></path>
            <path d="M129,89.58333c0,25.87525 -30.64825,43.00717 -43.00717,48.86233c-12.31592,-5.83008 -42.99283,-22.962 -42.99283,-48.86233v-47.99158c15.01417,-2.29333 34.228,-6.78683 43,-8.91533c8.772,2.1285 27.98942,6.62558 43,8.91533z" fill="#f44336"></path>
            <path d="M129,89.69442c0,25.87525 -30.64825,43.00717 -43.00717,48.86233l0.00717,-105.76925c8.772,2.1285 27.98942,6.62558 43,8.91533z" fill="#e53935"></path>
            <path d="M35.83333,35.83333c-1.97902,0 -3.58333,1.60431 -3.58333,3.58333c0,1.97902 1.60431,3.58333 3.58333,3.58333c1.97902,0 3.58333,-1.60431 3.58333,-3.58333c0,-1.97902 -1.60431,-3.58333 -3.58333,-3.58333zM60.91667,28.66667c-1.97902,0 -3.58333,1.60431 -3.58333,3.58333c0,1.97902 1.60431,3.58333 3.58333,3.58333c1.97902,0 3.58333,-1.60431 3.58333,-3.58333c0,-1.97902 -1.60431,-3.58333 -3.58333,-3.58333zM86,21.5c-1.97902,0 -3.58333,1.60431 -3.58333,3.58333c0,1.97902 1.60431,3.58333 3.58333,3.58333c1.97902,0 3.58333,-1.60431 3.58333,-3.58333c0,-1.97902 -1.60431,-3.58333 -3.58333,-3.58333zM35.83333,57.33333c-1.97902,0 -3.58333,1.60431 -3.58333,3.58333c0,1.97902 1.60431,3.58333 3.58333,3.58333c1.97902,0 3.58333,-1.60431 3.58333,-3.58333c0,-1.97902 -1.60431,-3.58333 -3.58333,-3.58333zM35.83333,78.83333c-1.97902,0 -3.58333,1.60431 -3.58333,3.58333c0,1.97902 1.60431,3.58333 3.58333,3.58333c1.97902,0 3.58333,-1.60431 3.58333,-3.58333c0,-1.97902 -1.60431,-3.58333 -3.58333,-3.58333zM39.41667,100.33333c-1.97902,0 -3.58333,1.60431 -3.58333,3.58333c0,1.97902 1.60431,3.58333 3.58333,3.58333c1.97902,0 3.58333,-1.60431 3.58333,-3.58333c0,-1.97902 -1.60431,-3.58333 -3.58333,-3.58333zM50.16667,118.25c-1.97902,0 -3.58333,1.60431 -3.58333,3.58333c0,1.97902 1.60431,3.58333 3.58333,3.58333c1.97902,0 3.58333,-1.60431 3.58333,-3.58333c0,-1.97902 -1.60431,-3.58333 -3.58333,-3.58333zM68.08333,132.58333c-1.97902,0 -3.58333,1.60431 -3.58333,3.58333c0,1.97902 1.60431,3.58333 3.58333,3.58333c1.97902,0 3.58333,-1.60431 3.58333,-3.58333c0,-1.97902 -1.60431,-3.58333 -3.58333,-3.58333z" fill="#9fa8da"></path>
            <path d="M136.16667,35.83333c-1.97902,0 -3.58333,1.60431 -3.58333,3.58333c0,1.97902 1.60431,3.58333 3.58333,3.58333c1.97902,0 3.58333,-1.60431 3.58333,-3.58333c0,-1.97902 -1.60431,-3.58333 -3.58333,-3.58333zM111.08333,28.66667c-1.97902,0 -3.58333,1.60431 -3.58333,3.58333c0,1.97902 1.60431,3.58333 3.58333,3.58333c1.97902,0 3.58333,-1.60431 3.58333,-3.58333c0,-1.97902 -1.60431,-3.58333 -3.58333,-3.58333zM136.16667,57.33333c-1.97902,0 -3.58333,1.60431 -3.58333,3.58333c0,1.97902 1.60431,3.58333 3.58333,3.58333c1.97902,0 3.58333,-1.60431 3.58333,-3.58333c0,-1.97902 -1.60431,-3.58333 -3.58333,-3.58333zM136.16667,78.83333c-1.97902,0 -3.58333,1.60431 -3.58333,3.58333c0,1.97902 1.60431,3.58333 3.58333,3.58333c1.97902,0 3.58333,-1.60431 3.58333,-3.58333c0,-1.97902 -1.60431,-3.58333 -3.58333,-3.58333zM132.58333,100.33333c-1.97902,0 -3.58333,1.60431 -3.58333,3.58333c0,1.97902 1.60431,3.58333 3.58333,3.58333c1.97902,0 3.58333,-1.60431 3.58333,-3.58333c0,-1.97902 -1.60431,-3.58333 -3.58333,-3.58333zM121.83333,118.25c-1.97902,0 -3.58333,1.60431 -3.58333,3.58333c0,1.97902 1.60431,3.58333 3.58333,3.58333c1.97902,0 3.58333,-1.60431 3.58333,-3.58333c0,-1.97902 -1.60431,-3.58333 -3.58333,-3.58333zM103.91667,132.58333c-1.97902,0 -3.58333,1.60431 -3.58333,3.58333c0,1.97902 1.60431,3.58333 3.58333,3.58333c1.97902,0 3.58333,-1.60431 3.58333,-3.58333c0,-1.97902 -1.60431,-3.58333 -3.58333,-3.58333z" fill="#7986cb"></path>
            <path d="M85.99642,92.59692l43.00358,-29.24358v-14.33333l-43.00358,29.24358z" fill="#ffcdd2"></path>
            <path d="M85.99642,78.26358l-39.259,26.69583c1.73433,3.53675 3.93808,6.8585 6.51092,9.90433l32.7445,-22.26683zM71.66667,60.91667l-7.16667,8.95833l-7.16667,-8.95833l7.16667,-8.95833z" fill="#ffffff"></path>
            <path d="M114.66667,103.91667l-7.16667,8.95833l-7.16667,-8.95833l7.16667,-8.95833z" fill="#ffcdd2"></path>
        </g>
    </g>
</svg>