<svg xmlns="http://www.w3.org/2000/svg" x="0px" y="0px" viewBox="0 0 172 172">
    <g fill="none" fill-rule="nonzero" stroke="none" stroke-width="1" stroke-linecap="butt" stroke-linejoin="miter" stroke-miterlimit="10" stroke-dasharray="" stroke-dashoffset="0" font-family="none" font-weight="none" font-size="none" text-anchor="none" style="mix-blend-mode: normal">
        <path d="M0,172v-172h172v172z" fill="none"></path>
        <g>
            <path d="M125.0655,82.41667h-39.81083h-2.838v-50.20608c0,-3.96317 -3.58333,-10.71058 -10.75,-10.71058c-7.16667,0 -10.75,7.12725 -10.75,10.71058c0,3.58333 0,86.01075 0,86.01075l-15.67708,-14.40858c-4.98083,-4.988 -12.35533,-5.4395 -17.33617,0.65217c-4.42542,4.988 -3.32533,12.73875 1.11083,17.16058l20.39633,20.39633c11.1585,12.06508 27.84967,15.64483 38.89708,15.64483h24.64975c18.275,0 33.55792,-14.534 33.55792,-32.80183c0,0 0.05017,-17.3075 0.05017,-38.86483z" fill="#ffcc80"></path>
            <path d="M82.41667,97.05817c0,5.74408 4.8375,10.44183 10.75,10.44183c5.91608,0 10.75,-4.69775 10.75,-10.44183v-72.29017c0,-5.7405 -4.83392,-10.43467 -10.75,-10.43467c-5.9125,0 -10.75,4.69417 -10.75,10.43467zM125.41667,111.3915c0,5.74408 4.8375,10.44183 10.75,10.44183c5.91608,0 10.75,-4.69775 10.75,-10.44183l0.05375,-65.1235c0,-5.74408 -4.83392,-10.43467 -10.75,-10.43467c-5.9125,0 -10.75,4.69417 -10.75,10.43467zM103.91667,104.22483c0,5.74408 4.8375,10.44183 10.75,10.44183c5.91608,0 10.75,-4.69775 10.75,-10.44183v-72.29017c0,-5.7405 -4.83392,-10.43467 -10.75,-10.43467c-5.9125,0 -10.75,4.69417 -10.75,10.43467z" fill="#ffcc80"></path>
            <g fill="#f2a25a">
                <path d="M82.44533,32.25c-0.00717,0.02867 -0.02867,0.10392 -0.02867,0.10392l0.02867,50.08783c0,1.978 1.60175,3.58333 3.58333,3.58333c1.98158,0 3.58333,-1.60533 3.58333,-3.58333zM104.103,30.15017c-0.07525,0.42642 -0.11108,0.85642 -0.13258,1.29358v0.00717l-0.05375,54.54908c0,1.978 1.60175,3.58333 3.58333,3.58333c1.98158,0 3.58333,-1.60533 3.58333,-3.58333zM125.54925,43.18275c-0.07525,0.42642 -0.11108,0.85642 -0.13258,1.29358v0.00717v45.09983c0,1.978 1.60175,3.58333 3.58333,3.58333c1.98158,0 3.58333,-1.60533 3.58333,-3.58333z"></path>
            </g>
            <g fill="#f44336">
                <path d="M93.16667,103.91667c-5.93706,0 -10.75,4.81294 -10.75,10.75c0,5.93706 4.81294,10.75 10.75,10.75c5.93706,0 10.75,-4.81294 10.75,-10.75c0,-5.93706 -4.81294,-10.75 -10.75,-10.75z"></path>
                <path d="M114.66667,103.91667c-5.93706,0 -10.75,4.81294 -10.75,10.75c0,5.93706 4.81294,10.75 10.75,10.75c5.93706,0 10.75,-4.81294 10.75,-10.75c0,-5.93706 -4.81294,-10.75 -10.75,-10.75z"></path>
                <path d="M103.61925,139.75l19.049,-17.91667l-18.75158,-7.16667l-19.85883,5.69033z"></path>
            </g>
        </g>
    </g>
</svg>